<svg xmlns="http://www.w3.org/2000/svg" width="200" height="200" viewBox="0 0 100 100" preserveAspectRatio="xMidYMid" class="lds-coffee" style="background:0 0"><defs><linearGradient id="a" x1="0%" x2="0%" y1="0%" y2="100%"><stop offset="10%" stop-opacity="0"/><stop offset="100%" stop-color="#fff"/></linearGradient><mask id="b" maskUnits="userSpaceOnUse" x="0" y="0" width="100" height="100"><path fill="url(#a)" d="M22 8h56v54H22z"/></mask><path id="c" d="M0-4c-2.1 2.6-2.1 6.4 0 9 2.1 2.6 2.1 6.4 0 9-2.1 2.6-2.1 6.4 0 9 2.1 2.6 2.1 6.4 0 9-2.1 2.6-2.1 6.4 0 9 2.1 2.6 2.1 6.4 0 9-2.1 2.6-2.1 6.4 0 9 2.1 2.6 2.1 6.4 0 9-2.1 2.6-2.1 6.4 0 9 2.1 2.6 2.1 6.4 0 9-2.1 2.6-2.1 6.4 0 9 2.1 2.6 2.1 6.4 0 9-2.1 2.6-2.1 6.4 0 9 2.1 2.6 2.1 6.4 0 9-2.1 2.6-2.1 6.4 0 9 2.1 2.6 2.1 6.4 0 9-2.1 2.6-2.1 6.4 0 9 2.1 2.6 2.1 6.4 0 9" stroke-width="6" stroke-linecap="round" fill="red" stroke="#60e7f3"/></defs><g mask="url(#b)"><use x="29" y="-4.605" href="#c"><animate attributeName="y" calcMode="linear" values="4;-14" keyTimes="0;1" dur=".5" begin="0s" repeatCount="indefinite"/></use><use x="47" y="-17.21" href="#c"><animate attributeName="y" calcMode="linear" values="0;-18" keyTimes="0;1" dur=".25" begin="0s" repeatCount="indefinite"/></use><use x="64" y="-16.907" href="#c"><animate attributeName="y" calcMode="linear" values="-4;-22" keyTimes="0;1" dur=".333" begin="0s" repeatCount="indefinite"/></use></g><path d="M81.2 52.5H76V49c0-1.6-1.3-3-3-3H20c-1.6 0-3 1.3-3 3v11.6C17 71.3 25.7 80 36.5 80h20.1c7.1 0 13.3-3.8 16.7-9.5h8.3c5.2 0 9.3-4.4 9-9.6-.4-4.8-4.6-8.4-9.4-8.4zm.3 15h-6.8c.8-2.2 1.3-4.5 1.3-7v-5h5.5c3.3 0 6 2.7 6 6s-2.7 6-6 6z" fill="#f360ee"/><path d="M78.8 88H19.2c-1.1 0-2-.9-2-2s.9-2 2-2h59.5c1.1 0 2 .9 2 2s-.8 2-1.9 2z" fill="#60e7f3"/></svg>