<svg xmlns="http://www.w3.org/2000/svg" viewBox="0 0 33 33" width="512" height="512"><g fill="#FFF"><path d="M16.5 30.5a.498.498 0 0 1-.382-.178l-16-19A.5.5 0 0 1 .1 10.7l6-8a.5.5 0 0 1 .4-.2h20a.5.5 0 0 1 .4.2l6 8a.5.5 0 0 1-.018.622l-16 19a.498.498 0 0 1-.382.178zM1.139 10.982L16.5 29.224l15.361-18.242L26.25 3.5H6.75l-5.611 7.482z"/><path d="M32.5 11.5H.5a.5.5 0 1 1 0-1h32a.5.5 0 0 1 0 1z"/><path d="M16.5 30.5a.498.498 0 0 1-.476-.65l6-19a.5.5 0 1 1 .953.301l-6 19a.5.5 0 0 1-.477.349z"/><path d="M16.5 30.5a.5.5 0 0 1-.477-.35l-6-19a.5.5 0 0 1 .953-.301l6 19a.5.5 0 0 1-.476.651z"/><path d="M10.5 11.5a.5.5 0 0 1-.448-.276l-4-8a.5.5 0 0 1 .895-.447l4 8a.5.5 0 0 1-.447.723z"/><path d="M10.5 11.5a.5.5 0 0 1-.399-.8l6-8a.5.5 0 0 1 .8.6l-6 8a.501.501 0 0 1-.401.2z"/><path d="M22.5 11.5a.498.498 0 0 1-.4-.2l-6-8a.5.5 0 1 1 .8-.6l6 8a.5.5 0 0 1-.4.8z"/><path d="M22.5 11.5a.5.5 0 0 1-.447-.724l4-8a.5.5 0 0 1 .895.447l-4 8a.502.502 0 0 1-.448.277z"/></g></svg>